<svg width="33" height="33" viewBox="0 0 33 33" fill="none" xmlns="http://www.w3.org/2000/svg">
    <path d="M29.9639 25.7174C29.4649 26.8703 28.8742 27.9316 28.1897 28.9073C27.2568 30.2375 26.4929 31.1582 25.9043 31.6695C24.9917 32.5087 24.014 32.9385 22.9669 32.9629C22.2153 32.9629 21.3088 32.749 20.2537 32.3152C19.1951 31.8833 18.2222 31.6695 17.3327 31.6695C16.3997 31.6695 15.3992 31.8833 14.329 32.3152C13.2571 32.749 12.3936 32.9752 11.7335 32.9976C10.7294 33.0403 9.72867 32.5983 8.72973 31.6695C8.09216 31.1134 7.29469 30.1601 6.33935 28.8095C5.31434 27.3674 4.47165 25.695 3.81147 23.7884C3.10443 21.729 2.75 19.7348 2.75 17.8042C2.75 15.5926 3.22787 13.6852 4.18505 12.0868C4.9373 10.8029 5.93806 9.79009 7.1906 9.04659C8.44313 8.3031 9.7965 7.92422 11.254 7.89998C12.0514 7.89998 13.0972 8.14666 14.3968 8.63146C15.6927 9.11789 16.5248 9.36457 16.8896 9.36457C17.1624 9.36457 18.0868 9.07613 19.6538 8.50109C21.1357 7.96781 22.3864 7.747 23.411 7.83398C26.1874 8.05805 28.2733 9.15252 29.6604 11.1243C27.1774 12.6288 25.9491 14.7361 25.9735 17.4393C25.9959 19.545 26.7598 21.2972 28.261 22.6884C28.9414 23.3341 29.7012 23.8332 30.5465 24.1876C30.3632 24.7193 30.1697 25.2285 29.9639 25.7174ZM23.5964 0.66057C23.5964 2.31095 22.9934 3.8519 21.7916 5.27819C20.3413 6.97377 18.587 7.95355 16.6847 7.79895C16.6605 7.60095 16.6464 7.39257 16.6464 7.1736C16.6464 5.58924 17.3361 3.89366 18.561 2.50729C19.1725 1.80535 19.9502 1.2217 20.8933 0.756103C21.8344 0.297457 22.7245 0.0438164 23.5617 0.00038147C23.5862 0.221011 23.5964 0.441655 23.5964 0.660548V0.66057Z" fill="white"/>
</svg>