<svg width="33" height="33" viewBox="0 0 33 33" fill="none" xmlns="http://www.w3.org/2000/svg">
    <g clip-path="url(#clip0_2007_14)">
        <path d="M33 16.5C33 7.38738 25.6126 0 16.5 0C7.38738 0 0 7.38738 0 16.5C0 24.2378 5.32752 30.7309 12.5143 32.5142V21.5424H9.11196V16.5H12.5143V14.3273C12.5143 8.71134 15.0559 6.1083 20.5696 6.1083C21.615 6.1083 23.4188 6.31356 24.1567 6.51816V11.0887C23.7673 11.0477 23.0908 11.0273 22.2506 11.0273C19.5452 11.0273 18.4998 12.0523 18.4998 14.7167V16.5H23.8894L22.9634 21.5424H18.4998V32.8792C26.6699 31.8925 33.0007 24.9361 33.0007 16.5H33Z" fill="#0866FF"/>
        <path d="M22.9627 21.5424L23.8887 16.5H18.4991V14.7167C18.4991 12.0523 19.5446 11.0273 22.2499 11.0273C23.0901 11.0273 23.7666 11.0477 24.156 11.0887V6.51817C23.4181 6.31291 21.6143 6.10831 20.5689 6.10831C15.0553 6.10831 12.5136 8.71135 12.5136 14.3273V16.5H9.1113V21.5424H12.5136V32.5142C13.79 32.831 15.1252 33 16.4993 33C17.1758 33 17.8431 32.9584 18.4985 32.8792V21.5424H22.9621H22.9627Z" fill="white"/>
    </g>
    <defs>
        <clipPath id="clip0_2007_14">
            <rect width="33" height="33" fill="white"/>
        </clipPath>
    </defs>
</svg>