<svg width="45" height="45" viewBox="0 0 45 45" fill="none" xmlns="http://www.w3.org/2000/svg">
    <path d="M22.4999 0C10.0738 0 0 10.0738 0 22.5001C0 34.927 10.0738 45 22.4999 45C34.9273 45 45 34.927 45 22.5001C45 10.0746 34.9273 0.00107474 22.4996 0.00107474L22.4999 0ZM32.8182 32.4517C32.7221 32.609 32.596 32.7458 32.4471 32.8544C32.2981 32.9629 32.1292 33.041 31.95 33.0842C31.7708 33.1274 31.5849 33.1348 31.4028 33.106C31.2208 33.0772 31.0462 33.0128 30.8891 32.9165C25.6063 29.6896 18.956 28.9588 11.1241 30.7482C10.7614 30.8307 10.3808 30.7658 10.066 30.5678C9.75119 30.3698 9.52785 30.0549 9.44509 29.6923C9.40387 29.5127 9.39847 29.3268 9.4292 29.1452C9.45992 28.9636 9.52618 28.7898 9.62416 28.6338C9.72214 28.4778 9.84993 28.3427 10.0002 28.2362C10.1505 28.1296 10.3203 28.0538 10.4999 28.013C19.0707 26.0548 26.4226 26.898 32.3533 30.5225C33.0143 30.9282 33.2239 31.7907 32.8182 32.4517ZM35.5721 26.3251C35.0643 27.1505 33.9842 27.4111 33.1594 26.9033C27.1114 23.1858 17.8923 22.1092 10.7388 24.2807C9.81103 24.5609 8.83116 24.0381 8.54959 23.1119C8.41523 22.6667 8.46293 22.1863 8.68223 21.7761C8.90152 21.366 9.27451 21.0596 9.71941 20.924C17.8907 18.4446 28.0491 19.6456 34.9944 23.9137C35.8193 24.4215 36.0799 25.5013 35.5721 26.3251ZM35.8085 19.9455C28.5569 15.6382 16.5927 15.2422 9.66917 17.3436C8.55738 17.6808 7.38165 17.0531 7.04473 15.9413C6.88272 15.4071 6.93948 14.8305 7.20254 14.3382C7.46559 13.8459 7.9134 13.4782 8.44749 13.316C16.3952 10.9032 29.6075 11.3694 37.9563 16.3258C38.1943 16.4665 38.4021 16.6529 38.568 16.8741C38.7338 17.0953 38.8543 17.347 38.9227 17.6149C38.9911 17.8828 39.006 18.1615 38.9665 18.4352C38.927 18.7088 38.8339 18.972 38.6925 19.2096C38.1014 20.2096 36.8064 20.5393 35.8096 19.9455H35.8085Z" fill="green"/>
</svg>
